<?xml version="1.0" encoding="UTF-8" standalone="no"?>
<!-- Created with Inkscape (http://www.inkscape.org/) -->

<svg
   xmlns:dc="http://purl.org/dc/elements/1.1/"
   xmlns:cc="http://creativecommons.org/ns#"
   xmlns:rdf="http://www.w3.org/1999/02/22-rdf-syntax-ns#"
   xmlns:svg="http://www.w3.org/2000/svg"
   xmlns="http://www.w3.org/2000/svg"
   xmlns:sodipodi="http://sodipodi.sourceforge.net/DTD/sodipodi-0.dtd"
   xmlns:inkscape="http://www.inkscape.org/namespaces/inkscape"
   width="232"
   height="97"
   id="svg2"
   version="1.1"
   inkscape:version="0.48.4 r9939"
   sodipodi:docname="bot.svg"
   inkscape:export-filename="C:\Users\William\Desktop\bot2.png"
   inkscape:export-xdpi="300"
   inkscape:export-ydpi="300">
  <defs
     id="defs4" />
  <sodipodi:namedview
     id="base"
     pagecolor="#ffffff"
     bordercolor="#666666"
     borderopacity="1.0"
     inkscape:pageopacity="0.0"
     inkscape:pageshadow="2"
     inkscape:zoom="7.9195959"
     inkscape:cx="87.64629"
     inkscape:cy="52.113141"
     inkscape:document-units="px"
     inkscape:current-layer="layer1"
     showgrid="false"
     inkscape:window-width="1920"
     inkscape:window-height="1017"
     inkscape:window-x="-8"
     inkscape:window-y="-8"
     inkscape:window-maximized="1" />
  <metadata
     id="metadata7">
    <rdf:RDF>
      <cc:Work
         rdf:about="">
        <dc:format>image/svg+xml</dc:format>
        <dc:type
           rdf:resource="http://purl.org/dc/dcmitype/StillImage" />
        <dc:title />
      </cc:Work>
    </rdf:RDF>
  </metadata>
  <g
     inkscape:label="Calque 1"
     inkscape:groupmode="layer"
     id="layer1"
     transform="translate(0,-955.36218)">
    <text
       xml:space="preserve"
       style="font-size:40px;font-style:normal;font-weight:normal;line-height:125%;letter-spacing:0px;word-spacing:0px;fill:#000000;fill-opacity:1;stroke:none;font-family:Sans"
       x="276.78571"
       y="82.85714"
       id="text3808"
       sodipodi:linespacing="125%"
       transform="translate(0,942.36218)"><tspan
         sodipodi:role="line"
         id="tspan3810"
         x="276.78571"
         y="82.85714"
         style="font-style:normal;font-variant:normal;font-weight:800;font-stretch:normal;font-family:Ornitons-Serial-Heavy;-inkscape-font-specification:Ornitons-Serial-Heavy Ultra-Bold" /></text>
    <text
       xml:space="preserve"
       style="font-size:40px;font-style:normal;font-weight:normal;line-height:125%;letter-spacing:0px;word-spacing:0px;fill:#000000;fill-opacity:1;stroke:none;font-family:Sans"
       x="55"
       y="184.64285"
       id="text3812"
       sodipodi:linespacing="125%"
       transform="translate(0,942.36218)"><tspan
         sodipodi:role="line"
         id="tspan3814"
         x="55"
         y="184.64285"
         style="font-style:normal;font-variant:normal;font-weight:normal;font-stretch:normal;font-family:TrashHand;-inkscape-font-specification:TrashHand" /></text>
    <path
       style="font-size:79.90850067px;font-style:normal;font-weight:normal;line-height:125%;letter-spacing:0px;word-spacing:0px;fill:#000000;fill-opacity:1;stroke:none;font-family:Sans"
       d="m 43.53125,970.68229 c -0.490462,0.0188 -1.002937,0.0719 -1.5,0.15625 -1.988309,0.3374 -3.803652,1.03184 -5.4375,2.0625 -1.918397,1.20798 -3.489255,2.74696 -4.75,4.59375 -1.26078,1.84689 -2.181005,3.83456 -2.75,6 -0.744604,2.98328 -0.722387,5.98104 0.09375,9 -1.882623,-0.49744 -3.570892,-1.41396 -5.0625,-2.78125 -1.491627,-1.36721 -3.11694,-3.17059 -3.716015,-5.72409 -0.654013,-2.55546 -0.225238,-4.984 1.247526,-7.26399 0.599073,-0.91233 1.043934,-1.8052 1.343489,-2.64875 0.299529,-0.84343 0.160302,-1.76482 -0.383854,-2.76915 -0.546679,-0.91231 -1.315198,-1.58574 -2.351107,-2.08689 -1.035928,-0.50101 -2.16056,-0.73392 -3.358723,-0.64212 -1.310508,0.0899 -2.417804,0.51448 -3.262761,1.2441 -0.844964,0.72978 -1.560095,1.53577 -2.159179,2.44809 -1.417837,2.32593 -2.0906739,4.8012 -2.0632161,7.42453 0.027453,2.62343 0.5018878,5.38489 2.0632161,7.42452 2.992194,3.90882 7.627348,6.28712 12.703124,7.53125 0.993318,0.35445 2.014697,0.57653 3.0625,0.71875 1.047777,0.14229 2.094264,0.24552 3.125,0.28125 0.816106,1.77534 1.876773,3.48664 3.15625,5.15626 0.531598,0.6747 1.056783,1.3469 1.625,1.9687 0.568176,0.6219 1.176452,1.2094 1.78125,1.8125 0.497454,0.4975 0.935665,0.9892 1.34375,1.4688 0.408037,0.4796 0.801813,0.9951 1.15625,1.5625 1.066461,1.7054 1.540256,3.5333 1.46875,5.4687 -0.07156,1.9355 -0.826236,3.6655 -2.28125,5.1563 -0.746239,0.7462 -1.649395,1.3872 -2.75,1.9375 -1.100648,0.5503 -2.274209,0.9254 -3.5,1.1562 -1.225827,0.2309 -2.462518,0.3208 -3.6875,0.25 -1.22501,-0.071 -2.31837,-0.3462 -3.3125,-0.8437 -0.994152,-0.4975 -1.802296,-1.2016 -2.40625,-2.125 -0.603971,-0.9234 -0.906258,-2.1387 -0.90625,-3.5938 -8e-6,-1.0307 0.176017,-1.9828 0.53125,-2.9062 0.355216,-0.9234 0.820161,-1.7947 1.40625,-2.5938 0.58607,-0.799 1.254586,-1.5306 2,-2.1875 0.745391,-0.6567 1.525988,-1.2212 2.34375,-1.7187 0.177192,-0.1073 0.403794,-0.2335 0.6875,-0.375 0.283677,-0.1414 0.459702,-0.3183 0.53125,-0.5313 0.177191,-0.3917 0.104397,-0.7199 -0.25,-0.9687 -0.212987,-0.1414 -0.425409,-0.1645 -0.65625,-0.094 -0.230869,0.071 -0.474541,0.116 -0.6875,0.1875 -0.923434,0.3203 -1.80356,0.7259 -2.65625,1.1875 -0.852712,0.4618 -1.657153,0.9907 -2.4375,1.5938 -1.598112,1.2778 -2.861537,2.854 -3.75,4.7187 -0.888472,1.8648 -1.239709,3.842 -1.0625,5.9375 0.178828,2.0241 0.895482,3.8253 2.15625,5.4063 1.260756,1.581 2.836131,2.7554 4.71875,3.5 1.668,0.7104 3.434392,1.0847 5.28125,1.1562 1.846826,0.072 3.63381,-0.077 5.375,-0.4687 1.916727,-0.3902 3.718704,-1.1085 5.40625,-2.1563 1.687493,-1.0477 3.110686,-2.3706 4.28125,-3.9687 1.633839,-2.237 2.540698,-4.7201 2.71875,-7.4375 0.177985,-2.7174 -0.301139,-5.3267 -1.4375,-7.8125 -0.497509,-1.1364 -1.115448,-2.18 -1.84375,-3.1563 -0.728362,-0.9762 -1.518623,-1.8964 -2.40625,-2.74996 -0.746243,-0.74456 -1.46371,-1.50005 -2.15625,-2.28125 -0.692591,-0.78114 -1.334374,-1.6152 -1.9375,-2.46875 1.669612,-0.35438 3.389762,-0.89212 5.21875,-1.65625 1.82893,-0.76406 3.521715,-1.72069 5.03125,-2.875 1.509466,-1.15424 2.742455,-2.53137 3.71875,-4.09375 0.97622,-1.56229 1.468711,-3.32417 1.46875,-5.3125 0.03573,-2.024 -0.415851,-3.92921 -1.375,-5.6875 -0.959225,-1.75819 -2.449252,-3.03046 -4.4375,-3.8125 -1.411981,-0.53279 -2.841113,-0.77527 -4.3125,-0.71875 z m 2,4 c 0.239648,0.01 0.479148,0.0582 0.71875,0.0937 0.958343,0.14231 1.838468,0.56634 2.65625,1.3125 0.638882,0.6032 1.118006,1.31263 1.4375,2.09375 0.319422,0.78122 0.508814,1.57148 0.5625,2.40625 0.05361,0.83487 -0.01918,1.66523 -0.25,2.5 -0.230891,0.83486 -0.574091,1.60661 -1,2.28125 -1.100662,1.70382 -2.523042,3.09062 -4.28125,4.15625 -1.75827,1.06571 -3.612901,1.86853 -5.53125,2.4375 -0.390203,0.10571 -0.73855,0.22393 -1.09375,0.3125 -0.355249,0.0886 -0.734845,0.14725 -1.125,0.21875 -0.212995,0.0716 -0.392724,0.12504 -0.5,0.125 -0.177228,0.0358 -0.276756,0.0224 -0.3125,-0.0312 -0.03579,-0.0536 -0.08637,-0.16651 -0.15625,-0.34375 -0.07155,-0.17717 -0.161419,-0.36656 -0.25,-0.5625 -0.08863,-0.19586 -0.147239,-0.38526 -0.21875,-0.5625 -0.638938,-1.49077 -0.968771,-3.08032 -0.96875,-4.75 0.06989,-1.49239 0.359618,-2.93699 0.875,-4.375 0.515338,-1.43792 1.286273,-2.73856 2.28125,-3.875 0.603126,-0.67463 1.331069,-1.28887 2.21875,-1.875 0.887628,-0.58603 1.822034,-1.01457 2.78125,-1.28125 0.719369,-0.19992 1.437305,-0.31125 2.15625,-0.28125 z m 140.59375,4.03125 c -0.64056,5e-5 -1.24432,0.12631 -1.8125,0.375 -0.56821,0.24879 -1.07407,0.5741 -1.5,1 -0.42595,0.42599 -0.75127,0.93185 -1,1.5 -0.24875,0.56824 -0.37501,1.17363 -0.375,1.8125 -1e-5,0.64059 0.12625,1.24435 0.375,1.8125 0.24873,0.56824 0.57405,1.0741 1,1.5 0.42593,0.42599 0.93179,0.7513 1.5,1 0.56818,0.24878 1.17194,0.37504 1.8125,0.375 0.6389,4e-5 1.24429,-0.12622 1.8125,-0.375 0.56818,-0.2487 1.07404,-0.57401 1.5,-1 0.42593,-0.4259 0.75124,-0.93176 1,-1.5 0.24872,-0.56815 0.37498,-1.17191 0.375,-1.8125 -2e-5,-0.63887 -0.12628,-1.24426 -0.375,-1.8125 -0.24876,-0.56815 -0.57407,-1.07401 -1,-1.5 -0.42596,-0.4259 -0.93182,-0.75121 -1.5,-1 -0.56821,-0.24869 -1.1736,-0.37495 -1.8125,-0.375 z m -83.53125,16.1875 c -0.65682,0.0716 -1.30312,0.27514 -1.90625,0.59375 -0.56902,0.28454 -1.047336,0.64995 -1.4375,1.09375 -0.390192,0.44386 -0.768975,0.9088 -1.125,1.40625 -0.284517,0.39021 -0.56007,0.78317 -0.84375,1.15625 -0.283704,0.37314 -0.532523,0.73485 -0.78125,1.12496 -0.923432,1.4925 -1.75831,3.0582 -2.46875,4.6563 -0.710457,1.5981 -1.365607,3.2099 -1.96875,4.8437 l 1.75,-9.87496 0.21875,-1.28125 c 0.07152,-0.78033 -0.168445,-1.43177 -0.71875,-2 -0.550321,-0.56816 -1.244758,-0.81987 -2.0625,-0.75 -0.780361,0.0716 -1.3181,0.38722 -1.65625,0.9375 -0.338158,0.55035 -0.604048,1.14236 -0.78125,1.78125 -0.993331,3.65796 -1.99168,7.27446 -2.96875,10.84376 -0.28782,1.0514 -0.582666,2.1284 -0.875,3.1875 -0.09192,0.1259 -0.164901,0.2669 -0.25,0.4062 -0.19512,0.3195 -0.388215,0.5461 -0.53125,0.6875 -0.674713,0.8536 -1.338713,1.6831 -2.03125,2.5 -0.692594,0.817 -1.410061,1.6214 -2.15625,2.4375 -0.816148,0.8877 -1.778913,1.7954 -2.84375,2.7188 -0.178855,0.1431 -0.349551,0.3228 -0.5625,0.5 -0.212995,0.1772 -0.452964,0.354 -0.71875,0.5312 -0.265831,0.1773 -0.5459,0.299 -0.8125,0.4063 -0.266643,0.1073 -0.505799,0.1608 -0.71875,0.125 -0.248759,0.036 -0.411417,-0.082 -0.5,-0.3125 -0.08862,-0.2309 -0.151754,-0.4922 -0.1875,-0.8125 -0.03579,-0.3203 -0.03579,-0.6493 0,-0.9688 0.03575,-0.3194 0.06248,-0.546 0.0625,-0.6875 0.06989,-1.0307 0.219991,-2.0504 0.46875,-3.0625 0.248718,-1.012 0.496724,-2.005 0.78125,-3 0.603129,-2.024 1.311745,-4.0429 2.09375,-6.0312 0.781958,-1.9883 1.590102,-3.9521 2.40625,-5.9063 0.17718,-0.4616 0.349502,-0.9311 0.5625,-1.375 0.212946,-0.4438 0.365941,-0.9087 0.4375,-1.40621 0.107272,-0.74619 -0.0064,-1.45029 -0.34375,-2.125 -0.337368,-0.67465 -0.828233,-1.20354 -1.46875,-1.59375 -0.674708,-0.39014 -1.379621,-0.53944 -2.125,-0.46875 -0.745425,0.0708 -1.426495,0.31957 -2.03125,0.78125 -0.531638,0.39021 -0.925415,0.8827 -1.15625,1.46875 -0.230875,0.58611 -0.443297,1.1765 -0.65625,1.78125 -0.710468,1.98836 -1.351438,4.00726 -1.9375,6.03126 -0.586097,2.0241 -1.105321,4.0652 -1.53125,6.125 -0.107315,0.4975 -0.192662,0.9892 -0.28125,1.4687 -0.08862,0.4796 -0.178482,0.9713 -0.25,1.4688 -0.461726,1.0291 -0.940037,1.959 -1.4375,2.8125 -0.495865,0.8519 -1.025566,1.6563 -1.59375,2.4375 -0.568209,0.7812 -1.222545,1.5173 -1.96875,2.1562 -0.604786,0.4618 -1.272489,0.8368 -2,1.1563 -0.727527,0.3195 -1.468024,0.396 -2.25,0.2187 -0.390184,-0.036 -0.696986,-0.1895 -0.875,-0.4375 -0.178024,-0.2479 -0.290918,-0.5234 -0.34375,-0.8437 -0.05284,-0.3203 -0.06702,-0.659 -0.03125,-1.0313 0.03576,-0.3722 0.09085,-0.7154 0.125,-1 0.248734,-2.024 0.763442,-3.9878 1.5625,-5.9062 0.799045,-1.9184 1.615227,-3.7827 2.46875,-5.5938 1.064852,-2.3443 2.202829,-4.6379 3.375,-6.875 0.248726,-0.4616 0.461148,-0.8999 0.65625,-1.3437 0.195076,-0.44381 0.285753,-0.93549 0.25,-1.46876 -0.06992,-0.78033 -0.364169,-1.48976 -0.84375,-2.09375 -0.479606,-0.60393 -1.070812,-1.03248 -1.78125,-1.28125 -0.710459,-0.2487 -1.427926,-0.24419 -2.15625,-0.0312 -0.72834,0.21301 -1.34628,0.61401 -1.84375,1.21875 -0.390184,0.46174 -0.702134,0.97645 -0.96875,1.5625 -0.266627,0.58611 -0.534142,1.15591 -0.78125,1.6875 -0.923426,1.91831 -1.767154,3.84131 -2.53125,5.81241 -0.7641,1.9713 -1.405883,3.976 -1.9375,6 -0.215222,0.7681 -0.413235,1.5504 -0.591678,2.3477 -0.01048,0.047 -5.958403,2.3595 -5.968753,2.4063 -0.0409,0.1855 -0.08074,0.3719 -0.119485,0.559 -0.0086,0.041 5.76257,-1.5356 5.754103,-1.4941 -0.159686,0.7826 -0.142404,0.9322 -0.261687,1.7436 -0.284508,1.9355 -0.153726,3.814 0.34375,5.625 0.284505,0.8893 0.686319,1.7101 1.21875,2.4376 0.53243,0.7275 1.210609,1.2956 2.0625,1.6875 0.604773,0.2828 1.236079,0.433 1.875,0.4688 0.638912,0.036 1.267327,0.01 1.90625,-0.062 0.994947,-0.1414 1.915173,-0.4445 2.75,-0.9063 0.834809,-0.4617 1.606556,-1.0128 2.28125,-1.6875 0.674671,-0.6747 1.280057,-1.4465 1.8125,-2.2812 0.532417,-0.8348 1.011541,-1.6794 1.4375,-2.5313 -1.5e-5,0.9592 0.08533,1.9167 0.28125,2.875 0.195887,0.9584 0.58885,1.8385 1.15625,2.6563 0.533227,0.7803 1.183047,1.3769 2,1.75 0.816917,0.3731 1.701558,0.509 2.625,0.4375 0.887634,-0.07 1.705441,-0.3062 2.46875,-0.75 0.763262,-0.4438 1.485246,-0.9898 2.125,-1.5938 0.639704,-0.6039 1.23091,-1.2717 1.78125,-2 0.550286,-0.7283 1.038261,-1.419 1.5,-2.0937 0.233909,-0.3305 0.461408,-0.6643 0.6875,-1 -0.01809,0.064 -0.0444,0.1231 -0.0625,0.1875 -0.107296,0.4974 -0.219378,0.9937 -0.34375,1.4375 -0.124366,0.4438 -0.264807,0.9088 -0.40625,1.4062 -0.143062,0.5333 -0.165279,1.0614 -0.09375,1.5938 0.07154,0.5324 0.220015,1.0249 0.46875,1.4687 0.248741,0.4439 0.605308,0.8227 1.03125,1.125 0.425946,0.3024 0.901367,0.4881 1.46875,0.5938 1.03072,0.213 2.014077,-0.013 2.9375,-0.6875 0.461708,-0.3544 0.787024,-0.7437 1,-1.1875 0.212969,-0.4438 0.41654,-0.9088 0.59375,-1.4063 0.461706,-1.1363 0.926651,-2.2699 1.40625,-3.4062 0.479588,-1.1364 0.971266,-2.2744 1.46875,-3.375 0.603143,-1.351 1.262809,-2.673 1.9375,-3.9688 0.674674,-1.2957 1.35204,-2.5688 2.0625,-3.8125 0.710438,-1.242 1.468818,-2.4661 2.25,-3.6562 0.781155,-1.1901 1.66128,-2.2818 2.65625,-3.3125 -0.0716,1.0307 -0.21118,2.0505 -0.40625,3.0625 -0.1951,1.0119 -0.43426,2.005 -0.71875,3 -0.248753,1.029 -0.510939,2.0771 -0.8125,3.125 -0.301589,1.0478 -0.617242,2.0942 -0.9375,3.125 l -1.90625,5.625 c -0.177217,0.3918 -0.371125,0.8241 -0.53125,1.25 -0.160146,0.4258 -0.245494,0.8241 -0.28125,1.25 -0.06992,0.8519 0.105295,1.5835 0.53125,2.1875 0.425933,0.604 0.968188,1.0592 1.625,1.3437 0.656787,0.2845 1.34752,0.361 2.09375,0.2188 0.7462,-0.1423 1.40587,-0.5486 1.9375,-1.1875 0.28449,-0.356 0.4961,-0.7303 0.65625,-1.1563 0.16012,-0.4259 0.32278,-0.8285 0.5,-1.2187 0.35439,-0.8894 0.68423,-1.8095 0.96875,-2.75 0.28449,-0.9406 0.63654,-1.8385 1.0625,-2.6563 0.78196,-1.4909 1.58559,-2.9229 2.4375,-4.3437 0.85187,-1.4209 1.75954,-2.807 2.71875,-4.1563 0.9234,-1.3135 1.94767,-2.5644 3.03125,-3.7187 1.08353,-1.1544 2.35291,-2.1243 3.84375,-2.9063 -0.49751,2.0241 -1.06198,4.0288 -1.71875,6 -0.65683,1.9713 -1.30313,3.976 -1.90625,6 -0.28453,0.9235 -0.51917,1.8533 -0.75,2.8125 -0.23088,0.9592 -0.42398,1.9158 -0.53125,2.875 -0.1057,0.8877 -0.10651,1.8221 0,2.7813 0.10646,0.9592 0.48606,1.7912 1.125,2.5 0.56898,0.6405 1.22332,1.0461 1.96875,1.1875 0.74537,0.1414 1.50375,0.1147 2.25,-0.062 0.74618,-0.1772 1.46365,-0.4803 2.15625,-0.9063 0.69253,-0.4259 1.3121,-0.8775 1.84375,-1.375 1.5623,-1.3493 2.92155,-2.9113 4.09375,-4.6875 0.48206,-0.7304 0.92895,-1.4823 1.375,-2.2187 -0.20575,0.7353 -0.38587,1.4486 -0.59375,2.1875 -0.1073,0.4975 -0.25063,0.9937 -0.375,1.4375 -0.12437,0.4438 -0.23356,0.9088 -0.375,1.4062 -0.14306,0.5333 -0.19653,1.0614 -0.125,1.5938 0.0715,0.5324 0.25126,1.0249 0.5,1.4687 0.24874,0.4439 0.57406,0.8227 1,1.125 0.42595,0.3024 0.93262,0.4881 1.5,0.5938 1.03072,0.213 1.98283,-0.013 2.90625,-0.6875 0.46171,-0.3544 0.81827,-0.7437 1.03125,-1.1875 0.21297,-0.4438 0.41654,-0.9088 0.59375,-1.4063 0.46171,-1.1363 0.92665,-2.2698 1.40625,-3.4062 0.47959,-1.1364 0.97127,-2.2744 1.46875,-3.375 0.60314,-1.351 1.23156,-2.673 1.90625,-3.9688 0.67467,-1.2957 1.35204,-2.5687 2.0625,-3.8125 0.71044,-1.242 1.46882,-2.4661 2.25,-3.6562 0.78116,-1.19 1.66128,-2.2818 2.65625,-3.3125 -0.0716,1.0307 -0.17993,2.0505 -0.375,3.0625 -0.1951,1.012 -0.43426,2.0051 -0.71875,3 -0.24875,1.0291 -0.54219,2.0772 -0.84375,3.125 -0.30159,1.0478 -0.61724,2.0943 -0.9375,3.125 l -1.90625,5.625 c -0.17722,0.3918 -0.33988,0.8241 -0.5,1.25 -0.16015,0.4259 -0.27674,0.8241 -0.3125,1.25 -0.0699,0.8519 0.1053,1.5835 0.53125,2.1875 0.42593,0.604 0.96819,1.0592 1.625,1.3437 0.65679,0.2845 1.37877,0.361 2.125,0.2188 0.7462,-0.1423 1.37462,-0.5486 1.90625,-1.1875 0.28449,-0.356 0.4961,-0.7303 0.65625,-1.1563 0.16012,-0.4259 0.35403,-0.8285 0.53125,-1.2187 0.35439,-0.8893 0.65298,-1.8095 0.9375,-2.75 0.28449,-0.9405 0.63654,-1.8385 1.0625,-2.6563 0.78196,-1.4908 1.61684,-2.9228 2.46875,-4.3437 0.85187,-1.4209 1.75954,-2.8069 2.71875,-4.1563 0.9234,-1.3135 1.91642,-2.5644 3,-3.7187 1.08353,-1.1543 2.38416,-2.1243 3.875,-2.9063 -0.49751,2.0241 -1.09323,4.0288 -1.75,6 -0.65683,1.9713 -1.27188,3.976 -1.875,6 -0.28453,0.9235 -0.55042,1.8534 -0.78125,2.8125 -0.23088,0.9592 -0.39273,1.9159 -0.5,2.875 -0.1057,0.8877 -0.10651,1.8221 0,2.7813 0.10646,0.9592 0.48606,1.7912 1.125,2.5 0.56898,0.6405 1.22332,1.0461 1.96875,1.1875 0.74537,0.1414 1.4725,0.1147 2.21875,-0.062 0.74618,-0.1772 1.46365,-0.4803 2.15625,-0.9063 0.69253,-0.4259 1.3121,-0.8775 1.84375,-1.375 1.5623,-1.3493 2.92155,-2.9113 4.09375,-4.6875 0.95662,-1.4495 1.84143,-2.9333 2.65625,-4.4062 -0.26662,1.9354 -0.25325,3.8645 0.0312,5.7812 0.14144,0.9235 0.39478,1.7902 0.75,2.625 0.35522,0.8349 0.91003,1.556 1.65625,2.125 0.60315,0.4618 1.28051,0.7507 2.0625,0.875 0.78198,0.1244 1.53955,0.085 2.25,-0.094 0.92341,-0.1772 1.75459,-0.5702 2.5,-1.1563 0.74539,-0.586 1.42809,-1.2003 2.03125,-1.875 0.71044,-0.7462 1.36477,-1.5409 1.96875,-2.375 0.60395,-0.834 1.18549,-1.706 1.71875,-2.5937 1.10061,-1.7054 2.08108,-3.4434 2.96875,-5.2188 0.10728,-0.2129 0.23354,-0.4387 0.375,-0.6875 0.10358,-0.1821 0.1839,-0.3611 0.25,-0.5625 0.36214,-0.4121 0.71487,-0.8731 1.0625,-1.4062 0.92342,-1.3494 1.54217,-2.8215 1.84375,-4.4375 0.30157,-1.616 0.16113,-3.2456 -0.40625,-4.8438 l 14.5,0.5 c -0.70884,0.995 -1.48221,1.9613 -2.28125,2.9375 -0.79907,0.9763 -1.58852,1.9516 -2.40625,2.875 -0.81614,0.9235 -1.70159,1.8036 -2.625,2.6563 -0.92343,0.8527 -1.90679,1.5844 -2.9375,2.1875 -0.24875,0.1414 -0.4879,0.2819 -0.71875,0.4062 -0.23086,0.1244 -0.46713,0.2098 -0.75,0.2813 -0.17884,0.071 -0.37193,0.1213 -0.53125,0.1562 -0.15933,0.035 -0.26771,0.1337 -0.375,0.3125 -0.14145,0.2488 -0.16899,0.4925 -0.0625,0.6875 0.10648,0.1951 0.25577,0.3444 0.46875,0.4688 0.21297,0.1244 0.43875,0.2373 0.6875,0.3437 0.24873,0.1065 0.4523,0.2098 0.59375,0.2813 1.9899,1.1705 3.40262,2.8062 4.21875,4.9375 -1.98829,0.7462 -4.0064,1.5899 -6.03125,2.5312 -2.02487,0.9413 -3.7592,2.1922 -5.25,3.7188 -0.81775,0.8161 -1.50333,1.7334 -2,2.7812 -0.49666,1.0478 -0.78188,2.1307 -0.90625,3.25 -0.12437,1.1194 -0.0783,2.2432 0.1875,3.3438 0.26581,1.1006 0.78504,2.1033 1.53125,3.0625 1.13639,1.5265 2.59517,2.5516 4.40625,3.0312 1.81107,0.4796 3.62931,0.4663 5.40625,-0.031 1.91674,-0.5674 3.50259,-1.6155 4.78125,-3.125 1.27863,-1.5095 2.23607,-3.1577 2.875,-4.9688 0.71043,-1.9183 1.10258,-3.9632 1.15625,-6.0937 0.0536,-2.1305 -0.26283,-4.1709 -0.9375,-6.125 l -0.28125,-0.6875 c -0.0716,-0.1772 -0.10713,-0.2901 -0.125,-0.3438 -0.0179,-0.054 0.0728,-0.1175 0.25,-0.1875 l 1.375,-0.5937 c 0.53322,-0.213 1.0613,-0.412 1.59375,-0.625 0.53241,-0.213 1.065,-0.4388 1.5625,-0.6875 0.95917,-0.4259 1.90242,-0.8954 2.84375,-1.375 0.94128,-0.4796 1.8578,-0.9951 2.78125,-1.5625 1.27781,-0.7104 2.41578,-1.5141 3.375,-2.4375 0.10727,-0.1073 0.29666,-0.3004 0.5625,-0.5313 0.26578,-0.2308 0.49157,-0.4529 0.6875,-0.7187 0.19587,-0.2658 0.26785,-0.5325 0.25,-0.7813 -0.0179,-0.2487 -0.23034,-0.4239 -0.65625,-0.5312 -0.28454,-0.07 -0.52288,0.01 -0.71875,0.2187 -0.19593,0.213 -0.38532,0.3854 -0.5625,0.5625 -0.49751,0.4975 -1.02639,0.9758 -1.59375,1.4375 -0.56904,0.4618 -1.16024,0.9082 -1.78125,1.2813 -0.62106,0.3731 -1.26284,0.7081 -1.9375,1.0625 -1.31525,0.7105 -2.67739,1.3426 -4.0625,1.875 -1.38515,0.5324 -2.77276,1.065 -4.15625,1.5625 -0.17885,0.071 -0.32733,0.1168 -0.46875,0.1875 -0.14146,0.071 -0.26772,0.021 -0.375,-0.1563 l -0.4687,-0.7812 c -0.21299,-0.2845 -0.44329,-0.5646 -0.65625,-0.8125 -0.21299,-0.2479 -0.43878,-0.5013 -0.6875,-0.75 -1.02911,-0.995 -2.1893,-1.7764 -3.46875,-2.3438 1.91836,-0.7462 3.75963,-1.7295 5.5,-2.9375 1.74034,-1.2079 3.40188,-2.4676 5,-3.7812 1.27781,-1.0291 2.5108,-2.0593 3.71875,-3.125 1.2079,-1.0657 2.42156,-2.1761 3.59375,-3.3125 0.46168,-0.4617 0.7469,-1.0031 0.90625,-1.62506 0.15929,-0.62182 0.18684,-1.23976 0.0625,-1.84375 -0.1244,-0.60393 -0.40447,-1.14619 -0.8125,-1.625 -0.40809,-0.47875 -0.91909,-0.81824 -1.59375,-1.03125 -0.46174,-0.1788 -0.96678,-0.25448 -1.5,-0.21875 -0.53327,0.0358 -1.06667,0.0893 -1.5625,0.125 l -11.9375,0.3125 c -0.92343,0.0358 -1.82659,0.0759 -2.75,0.0937 -0.92343,0.0179 -1.85784,0.0551 -2.78125,0.125 -0.42595,3e-5 -0.86868,-0.0133 -1.3125,-0.0312 -0.44383,-0.0178 -0.85531,-0.009 -1.28125,0.0625 -0.63892,0.10733 -1.20791,0.4275 -1.6875,0.90625 -0.4796,0.47881 -0.7677,1.04247 -0.875,1.71875 -0.10567,0.74462 0.0161,1.45035 0.40625,2.12501 0.14306,0.1789 0.29606,0.3407 0.4375,0.5 0.14144,0.1594 0.24097,0.3541 0.3125,0.5313 l 0.53125,1.3125 c 0.42757,1.5981 0.37699,3.1743 -0.15625,4.7187 -0.51018,1.4777 -1.25468,2.7694 -2.21875,3.9063 -0.0308,0.024 -0.064,0.033 -0.0937,0.062 -0.17722,0.1788 -0.32651,0.3808 -0.46875,0.5937 -0.14227,0.213 -0.32281,0.4121 -0.5,0.625 l -1.75,2.25 c -0.71046,0.8178 -1.4012,1.6206 -2.09375,2.4375 -0.69258,0.817 -1.46514,1.5992 -2.28125,2.3438 -0.35605,0.356 -0.70728,0.6984 -1.0625,1 -0.35523,0.3016 -0.73483,0.5905 -1.125,0.875 -0.28451,0.1772 -0.59565,0.3763 -0.96875,0.625 -0.37311,0.2487 -0.71261,0.3795 -1.03125,0.3437 -0.24874,0.036 -0.44265,-0.082 -0.53125,-0.3125 -0.0886,-0.2308 -0.15174,-0.493 -0.1875,-0.8125 -0.0358,-0.3194 -0.0358,-0.6492 0,-0.9687 0.0358,-0.3195 0.0625,-0.5444 0.0625,-0.6875 0.0699,-1.0291 0.22001,-2.0505 0.46875,-3.0625 0.24873,-1.012 0.52799,-2.005 0.8125,-3 0.60314,-2.024 1.29839,-4.0421 2.0625,-6.0313 0.76409,-1.989 1.55435,-3.9804 2.40625,-5.9687 0.1772,-0.4259 0.38077,-0.8678 0.59375,-1.3125 0.21296,-0.4446 0.36596,-0.91043 0.4375,-1.40631 0.10729,-0.74619 -0.006,-1.45029 -0.34375,-2.125 -0.33735,-0.67465 -0.82822,-1.20191 -1.46875,-1.59375 -0.67469,-0.39014 -1.41086,-0.55362 -2.15625,-0.5 -0.74541,0.0537 -1.39523,0.31668 -2,0.8125 -0.53162,0.39184 -0.9254,0.8827 -1.15625,1.46875 -0.23086,0.58611 -0.44328,1.17813 -0.65625,1.78125 -0.64055,1.81116 -1.23094,3.65326 -1.78125,5.50006 -0.55032,1.8469 -1.04281,3.7066 -1.46875,5.625 -0.16074,0.697 -0.29945,1.4154 -0.4375,2.125 -0.0475,0.037 -0.0892,0.066 -0.125,0.125 -0.14148,0.1073 -0.25519,0.2336 -0.34375,0.375 -0.0887,0.1414 -0.17399,0.2632 -0.28125,0.4062 l -1.78125,2.0938 c -0.71049,0.8161 -1.42877,1.5975 -2.15625,2.3437 -0.72756,0.7463 -1.49479,1.4771 -2.3125,2.1875 -0.67472,0.6032 -1.40637,1.2086 -2.1875,1.8125 -0.7812,0.604 -1.61238,0.9791 -2.5,1.1563 0.14141,-0.9234 0.40811,-1.8132 0.78125,-2.7188 0.37308,-0.9055 0.73479,-1.8043 1.125,-2.6562 0.42591,-0.995 0.882,-1.9783 1.34375,-2.9375 0.46168,-0.9592 0.91325,-1.9174 1.375,-2.875 0.42753,-0.8535 0.85527,-1.7328 1.28125,-2.6563 0.42591,-0.9234 0.83224,-1.8541 1.1875,-2.8125 0.35519,-0.9583 0.604,-1.9291 0.78125,-2.9062 0.17717,-0.9771 0.22774,-1.9738 0.15625,-2.9688 -0.07,-0.95754 -0.31958,-1.85266 -0.78125,-2.68751 -0.46175,-0.83479 -1.1169,-1.47576 -1.96875,-1.9375 -0.60481,-0.356 -1.24497,-0.5855 -1.9375,-0.65625 -0.6926,-0.0707 -1.41458,-0.0448 -2.125,0.0625 -1.02913,0.21301 -1.93761,0.57924 -2.71875,1.09375 -0.7812,0.51458 -1.4853,1.1467 -2.125,1.875 -0.63976,0.72836 -1.2176,1.50896 -1.75,2.34381 -0.53246,0.8348 -1.03831,1.6794 -1.5,2.5312 l -2.125,4 c 0.14142,-0.7445 0.28186,-1.5401 0.40625,-2.375 0.12435,-0.8348 0.20084,-1.6651 0.21875,-2.5 0.0179,-0.8348 -0.0728,-1.6696 -0.25,-2.46876 -0.17723,-0.79902 -0.48033,-1.54404 -0.90625,-2.21875 -0.39183,-0.56898 -0.84259,-1.04729 -1.375,-1.4375 -0.53245,-0.39015 -1.14154,-0.6657 -1.78125,-0.84375 -0.63975,-0.17798 -1.28072,-0.22775 -1.9375,-0.15625 -0.65682,0.0716 -1.27187,0.27514 -1.875,0.59375 -0.56902,0.28454 -1.04734,0.64995 -1.4375,1.09375 -0.39019,0.44386 -0.76898,0.9088 -1.125,1.40625 -0.28452,0.39021 -0.59132,0.78317 -0.875,1.15625 -0.2837,0.37314 -0.53252,0.73485 -0.78125,1.12501 -0.92343,1.4925 -1.72706,3.0582 -2.4375,4.6563 -0.71046,1.5981 -1.39686,3.2099 -2,4.8437 l 1.78125,-9.87501 0.21875,-1.28125 c 0.0715,-0.78033 -0.16844,-1.43177 -0.71875,-2 -0.55032,-0.56816 -1.24476,-0.81987 -2.0625,-0.75 -0.78036,0.0716 -1.34935,0.38722 -1.6875,0.9375 -0.33816,0.55035 -0.60405,1.14236 -0.78125,1.78125 -0.99333,3.65801 -1.96043,7.27451 -2.9375,10.84381 -0.29976,1.0951 -0.63284,2.2091 -0.9375,3.3125 -0.0126,0.018 -0.0196,0.044 -0.0312,0.062 -0.0887,0.1414 -0.20524,0.2632 -0.3125,0.4062 l -1.75,2.0938 c -0.71049,0.8161 -1.42877,1.5975 -2.15625,2.3437 -0.72756,0.7463 -1.49479,1.4771 -2.3125,2.1875 -0.67472,0.6032 -1.40637,1.2086 -2.1875,1.8125 -0.7812,0.604 -1.61238,0.9791 -2.5,1.1563 0.14141,-0.9234 0.37686,-1.8132 0.75,-2.7188 0.37308,-0.9055 0.76604,-1.8043 1.15625,-2.6562 0.42591,-0.995 0.882,-1.9783 1.34375,-2.9375 0.46168,-0.9592 0.91325,-1.9174 1.375,-2.875 0.42753,-0.8535 0.85527,-1.7328 1.28125,-2.6563 0.42591,-0.9234 0.80099,-1.8541 1.15625,-2.8125 0.35519,-0.9583 0.63525,-1.9291 0.8125,-2.9062 0.17717,-0.9771 0.22774,-1.9738 0.15625,-2.9688 -0.07,-0.95754 -0.31958,-1.85266 -0.78125,-2.68751 -0.46175,-0.83479 -1.14815,-1.47576 -2,-1.9375 -0.60481,-0.356 -1.24497,-0.5855 -1.9375,-0.65625 -0.6926,-0.0707 -1.38333,-0.0448 -2.09375,0.0625 -1.02913,0.21301 -1.93761,0.57924 -2.71875,1.09375 -0.7812,0.51458 -1.4853,1.1467 -2.125,1.875 -0.63976,0.72836 -1.24885,1.50896 -1.78125,2.34381 -0.53246,0.8348 -1.00706,1.6794 -1.46875,2.5312 l -2.125,4 c 0.14142,-0.7445 0.25061,-1.5401 0.375,-2.375 0.12435,-0.8348 0.20084,-1.6651 0.21875,-2.5 0.0179,-0.8348 -0.0416,-1.6696 -0.21875,-2.46876 -0.17723,-0.79902 -0.48033,-1.54404 -0.90625,-2.21875 -0.39183,-0.56898 -0.87384,-1.04729 -1.40625,-1.4375 -0.53245,-0.39015 -1.11029,-0.6657 -1.75,-0.84375 -0.63975,-0.17798 -1.28072,-0.22775 -1.9375,-0.15625 z M 201.25,1023.1823 c 0.14305,0.9592 0.20537,1.9835 0.1875,3.0312 -0.0179,1.0478 -0.13079,2.0505 -0.34375,3.0625 -0.21298,1.0121 -0.542,2.0104 -0.96875,2.9688 -0.42677,0.9584 -0.95484,1.8163 -1.59375,2.5625 -0.53325,0.6747 -1.20547,1.1626 -1.96875,1.5 -0.76329,0.3373 -1.5811,0.4272 -2.46875,0.25 -1.03072,-0.1772 -1.82469,-0.6786 -2.375,-1.5313 -0.55032,-0.8527 -0.79028,-1.7879 -0.71875,-2.7812 0.0715,-1.0665 0.44146,-2.0499 1.0625,-2.9375 0.62103,-0.8877 1.33398,-1.6156 2.1875,-2.2188 1.06486,-0.7819 2.20283,-1.5031 3.375,-2.125 1.17215,-0.6218 2.38292,-1.2138 3.625,-1.7812 z"
       id="text3054"
       inkscape:connector-curvature="0"
       sodipodi:nodetypes="sccscccccccccccsaccccccccccssscccsssccccccccscscsccccccccccsccccssccccccccccccccccscccscccccccccccscccccccccccscccccccscccccccccccccccccccccccccccccccccscccccsccscccccccscssssscscsccccccccccccccccccccccccscscscccccccccsccccccccscccccccsccccccsccscccccscscscccccccccsccccccccscccccccsccccccscscccccccccsccscsccccccccccscssscccccccccccccscccccccccccscccccccscsccccccccccccccccccscccccccscscccccscscscccccccscccccccccccccccccccccccscccccccccccccccscccccccscccccccccccccccccccccscccccccccccccccccscccsccc" />
  </g>
</svg>
